<?xml version="1.0" encoding="UTF-8"?><svg id="Layer_2" xmlns="http://www.w3.org/2000/svg" viewBox="0 0 1279.92 184.06"><defs><style>.cls-1{fill:#2b7c85;stroke-width:0px;}</style></defs><g id="Layer_1-2"><path class="cls-1" d="m173.17,160.99c0,7.54-6.42,13.23-13.48,12.01-39.42-6.79-69.5-42.9-69.5-86.42,0-43.52,30.08-79.62,69.5-86.42,7.05-1.22,13.48,4.47,13.48,12.01v148.82Z"/><rect class="cls-1" x="0" y="0" width="75.76" height="75.76" rx="37.88" ry="37.88"/><path class="cls-1" d="m10.82,86.58h0c41.81,0,75.76,33.95,75.76,75.76v.09c0,5.92-4.81,10.73-10.73,10.73H10.73C4.81,173.17,0,168.36,0,162.44v-65.03C0,91.43,4.85,86.58,10.82,86.58Z"/><path class="cls-1" d="m274.87,11.06c-3.64,0-6.78,1.22-9.4,3.65-2.63,2.44-3.94,5.39-3.94,8.86s1.31,6.36,3.94,8.8c2.62,2.44,5.76,3.65,9.4,3.65s6.83-1.22,9.43-3.65c2.61-2.43,3.91-5.37,3.91-8.8s-1.3-6.43-3.91-8.86c-2.61-2.43-5.75-3.65-9.43-3.65Z"/><rect class="cls-1" x="263.31" y="49.88" width="23" height="97.59"/><path class="cls-1" d="m379.8,52.93c-5.02-2.88-10.9-4.32-17.63-4.32-7.29,0-13.4,1.61-18.33,4.83-4.93,3.22-8.52,7.56-10.77,13.03h-1.14v-16.58h-21.98v97.59h23v-57.18c0-4.7.88-8.7,2.64-12.01,1.76-3.3,4.19-5.83,7.31-7.59,3.11-1.76,6.68-2.64,10.71-2.64,5.93,0,10.58,1.84,13.95,5.53,3.37,3.69,5.05,8.79,5.05,15.31v58.58h23v-62.14c.04-7.79-1.32-14.42-4.1-19.89-2.77-5.46-6.67-9.64-11.69-12.52Z"/><path class="cls-1" d="m455.69,11.25c-5.63,0-10.76,1.08-15.37,3.24-4.62,2.16-8.29,5.42-11.02,9.78-2.73,4.36-4.1,9.83-4.1,16.39v9.21h-14.42v17.79h14.42v79.8h23.06v-79.8h20.2v-17.79h-20.2v-7.69c0-3.81.88-6.74,2.64-8.8,1.76-2.05,4.77-3.08,9.05-3.08,1.82,0,3.47.16,4.96.48,1.48.32,2.71.62,3.68.92l4.58-17.79c-1.48-.51-3.77-1.08-6.86-1.72-3.09-.64-6.63-.95-10.61-.95Z"/><path class="cls-1" d="m533.9,48.48c-5.59,0-10.56,1.54-14.9,4.61-4.34,3.07-7.4,7.42-9.18,13.06h-1.02v-16.26h-22.3v97.59h23v-57.37c0-4.15.95-7.81,2.86-10.99,1.91-3.18,4.52-5.67,7.85-7.47,3.32-1.8,7.08-2.7,11.28-2.7,1.95,0,3.97.14,6.07.41,2.1.28,3.63.58,4.61.92v-21.15c-1.06-.21-2.38-.37-3.97-.48-1.59-.11-3.02-.16-4.29-.16Z"/><path class="cls-1" d="m622.4,55.69c-3.85-2.52-8.11-4.33-12.77-5.43-4.66-1.1-9.34-1.65-14.04-1.65-6.82,0-13.05,1.01-18.68,3.02-5.63,2.01-10.4,5.02-14.3,9.02-3.9,4-6.69,8.97-8.39,14.9l21.47,3.05c1.14-3.35,3.36-6.25,6.64-8.7,3.28-2.46,7.74-3.69,13.37-3.69,5.34,0,9.42,1.31,12.26,3.94,2.84,2.63,4.26,6.33,4.26,11.12v.38c0,2.2-.82,3.82-2.45,4.86-1.63,1.04-4.23,1.8-7.78,2.29-3.56.49-8.2,1.03-13.91,1.62-4.75.51-9.33,1.32-13.76,2.45-4.43,1.12-8.4,2.76-11.91,4.93-3.52,2.16-6.29,5.04-8.32,8.64-2.03,3.6-3.05,8.16-3.05,13.66,0,6.4,1.43,11.78,4.29,16.14,2.86,4.36,6.76,7.65,11.69,9.88,4.93,2.22,10.49,3.34,16.68,3.34,5.08,0,9.52-.71,13.31-2.13,3.79-1.42,6.95-3.3,9.47-5.66,2.52-2.35,4.48-4.88,5.88-7.59h.76v13.4h22.11v-65.31c0-6.48-1.17-11.88-3.53-16.2-2.35-4.32-5.45-7.74-9.31-10.26Zm-10.1,56.77c0,3.6-.92,6.93-2.76,9.97-1.84,3.05-4.46,5.5-7.85,7.34-3.39,1.84-7.39,2.76-12.01,2.76s-8.73-1.08-11.82-3.24c-3.09-2.16-4.64-5.36-4.64-9.59,0-2.96.78-5.39,2.35-7.27s3.71-3.36,6.42-4.42c2.71-1.06,5.78-1.82,9.21-2.29,1.52-.21,3.32-.46,5.4-.76,2.07-.3,4.17-.64,6.29-1.02,2.12-.38,4.03-.83,5.75-1.33,1.72-.51,2.93-1.06,3.65-1.65v11.5Z"/><path class="cls-1" d="m705.82,48.48c-5.59,0-10.56,1.54-14.9,4.61-4.34,3.07-7.4,7.42-9.18,13.06h-1.02v-16.26h-22.3v97.59h23v-57.37c0-4.15.95-7.81,2.86-10.99,1.91-3.18,4.52-5.67,7.85-7.47,3.32-1.8,7.08-2.7,11.28-2.7,1.95,0,3.97.14,6.07.41,2.1.28,3.63.58,4.61.92v-21.15c-1.06-.21-2.38-.37-3.97-.48-1.59-.11-3.02-.16-4.29-.16Z"/><path class="cls-1" d="m798.62,60.42c-4.13-4.02-8.87-7-14.23-8.93-5.36-1.93-11.04-2.89-17.06-2.89-9.32,0-17.43,2.13-24.33,6.38-6.91,4.26-12.27,10.19-16.11,17.79-3.84,7.6-5.75,16.42-5.75,26.46s1.91,19.07,5.72,26.59c3.81,7.52,9.26,13.32,16.36,17.41,7.09,4.09,15.53,6.13,25.32,6.13,7.58,0,14.32-1.16,20.2-3.46,5.89-2.31,10.72-5.57,14.52-9.78,3.79-4.22,6.36-9.16,7.72-14.84l-21.47-2.41c-1.02,2.75-2.52,5.06-4.51,6.93-1.99,1.86-4.34,3.27-7.05,4.22-2.71.95-5.74,1.43-9.08,1.43-5,0-9.36-1.07-13.09-3.21-3.73-2.14-6.63-5.23-8.7-9.28-2-3.9-3.02-8.58-3.09-14.01h67.95v-7.05c0-8.55-1.19-15.94-3.56-22.14-2.37-6.2-5.62-11.32-9.75-15.34Zm-54.58,29.04c.22-3.82,1.17-7.38,2.92-10.64,1.97-3.66,4.73-6.63,8.29-8.9,3.56-2.27,7.69-3.4,12.39-3.4,4.4,0,8.27,1,11.6,2.99,3.32,1.99,5.92,4.71,7.78,8.16,1.86,3.45,2.82,7.38,2.86,11.79h-45.84Z"/><path class="cls-1" d="m896.49,66.01h-.95c-1.19-2.37-2.86-4.9-5.02-7.59-2.16-2.69-5.08-5-8.77-6.93-3.69-1.93-8.39-2.89-14.1-2.89-7.5,0-14.3,1.92-20.4,5.75-6.1,3.83-10.94,9.49-14.52,16.96-3.58,7.48-5.37,16.64-5.37,27.48s1.76,19.82,5.27,27.32c3.51,7.5,8.3,13.21,14.36,17.15,6.06,3.94,12.92,5.91,20.59,5.91,5.59,0,10.23-.93,13.91-2.8,3.68-1.86,6.65-4.12,8.89-6.77,2.25-2.65,3.96-5.16,5.15-7.53h1.4v15.37h22.62V17.35h-23.06v48.67Zm-2.22,49.24c-1.78,4.74-4.38,8.44-7.81,11.09-3.43,2.65-7.58,3.97-12.45,3.97s-9.29-1.36-12.74-4.1c-3.45-2.73-6.06-6.48-7.81-11.24-1.76-4.77-2.64-10.2-2.64-16.3s.87-11.44,2.61-16.14c1.74-4.7,4.32-8.39,7.75-11.06,3.43-2.67,7.71-4,12.83-4s9.14,1.29,12.55,3.88c3.41,2.58,5.99,6.21,7.75,10.87,1.76,4.66,2.64,10.14,2.64,16.46s-.89,11.84-2.67,16.58Z"/><path class="cls-1" d="m958.31,121.04c-3.85,0-7.16,1.36-9.91,4.07-2.75,2.71-4.11,5.97-4.07,9.78-.04,3.9,1.31,7.2,4.07,9.91,2.75,2.71,6.06,4.07,9.91,4.07,2.5,0,4.8-.63,6.89-1.87,2.1-1.25,3.79-2.93,5.08-5.05,1.29-2.12,1.96-4.47,2-7.05-.04-3.81-1.45-7.07-4.22-9.78-2.78-2.71-6.03-4.07-9.75-4.07Z"/><path class="cls-1" d="m1058.22,129.74c-2.44,3.01-5.44,5.33-9.02,6.96-3.58,1.63-7.53,2.45-11.85,2.45-6.4,0-11.98-1.71-16.74-5.14-4.77-3.43-8.46-8.19-11.09-14.26-2.63-6.08-3.94-13.08-3.94-21s1.34-14.81,4.03-20.81c2.69-5.99,6.43-10.67,11.21-14.04,4.79-3.37,10.29-5.05,16.52-5.05,6.95,0,12.68,1.96,17.18,5.88,4.51,3.92,7.36,8.63,8.55,14.14h11.44c-.89-6.06-3.06-11.36-6.51-15.92-3.45-4.55-7.83-8.09-13.12-10.61-5.29-2.52-11.2-3.78-17.73-3.78-8.51,0-15.99,2.17-22.43,6.51-6.44,4.34-11.47,10.32-15.09,17.95-3.62,7.62-5.43,16.33-5.43,26.11s1.78,18.34,5.34,25.92c3.56,7.58,8.56,13.55,15.03,17.92,6.46,4.36,14.05,6.55,22.78,6.55,6.78,0,12.8-1.31,18.08-3.94,5.27-2.62,9.57-6.24,12.9-10.83,3.32-4.59,5.41-9.84,6.26-15.72h-11.44c-.85,4.15-2.49,7.73-4.92,10.74Z"/><rect class="cls-1" x="1098.91" y="49.88" width="11.37" height="97.59"/><path class="cls-1" d="m1104.69,16.84c-2.33,0-4.32.79-5.97,2.38-1.65,1.59-2.48,3.51-2.48,5.75s.83,4.16,2.48,5.75c1.65,1.59,3.64,2.38,5.97,2.38s4.32-.79,5.97-2.38c1.65-1.59,2.48-3.5,2.48-5.75s-.83-4.16-2.48-5.75c-1.65-1.59-3.64-2.38-5.97-2.38Z"/><path class="cls-1" d="m1176.61,137.59c-1.06.19-2.33.29-3.81.29-2.54,0-4.94-.48-7.18-1.43-2.25-.95-4.07-2.58-5.46-4.89-1.4-2.31-2.1-5.49-2.1-9.56v-62.26h20.65v-9.85h-20.65v-23.38h-11.37v23.38h-14.55v9.85h14.55v64.93c0,5.34,1.23,9.81,3.69,13.41,2.46,3.6,5.6,6.31,9.43,8.13,3.83,1.82,7.82,2.73,11.98,2.73,2.37,0,4.36-.18,5.97-.54,1.61-.36,2.96-.75,4.07-1.17l-2.41-10.23c-.81.21-1.74.41-2.8.6Z"/><path class="cls-1" d="m1267.65,49.88l-28.97,82.66h-.89l-28.97-82.66h-12.26l35.9,98.54-3.56,9.91c-1.82,4.91-3.9,8.56-6.23,10.96-2.33,2.39-5,3.75-8.01,4.07-3.01.32-6.44-.12-10.29-1.3l-3.05,9.97c1.14.51,2.69.97,4.64,1.4,1.95.42,4.04.64,6.29.64,4.11,0,7.82-.77,11.15-2.32,3.33-1.55,6.26-3.9,8.8-7.05,2.54-3.16,4.68-7.09,6.42-11.79l41.3-113.03h-12.26Z"/></g></svg>